<?xml version="1.0" encoding="UTF-8"?>
<svg fill-rule="evenodd" stroke-width="27" aria-label="Logo" version="1.1" viewBox="0 0 347 391" xmlns="http://www.w3.org/2000/svg"><path d="m195.81 24.13 114.41 66.54a44 44 0 0121.88 38.04v136.43a48 48 0 01-24.45 41.82l-113.55 63.94a49 49 0 01-48.48-.23l-104.57-60.19a53 53 0 01-26.56-45.93v-129.47a55 55 0 0126.1-46.8l102.8-63.46a51 51 0 0152.42-.69z" fill="#ff4088" stroke="#c9177e"/><path d="m24.897 299.92v-207.22h34.016v75.48h56.435v-75.48h34.118v207.22h-34.118v-90.61h-56.435v90.61z" fill="#fff"/><g transform="matrix(.754 0 0 .34399 -112.87 70.393)" fill="none" stroke="#000" stroke-linecap="round" stroke-linejoin="round" stroke-width="18"><polyline points="244 315 222 345 244 375"/><line x1="258.86" x2="278.86" y1="375" y2="315"/><polyline transform="translate(-3.9532 -.43828)" points="300 315 322 345 300 375"/></g><g fill="none" stroke="#000" stroke-linecap="round" stroke-linejoin="round" stroke-width="18"><line x1="165.75" x2="165.75" y1="41.476" y2="161.48"/><path d="m247.75 115.48q0-15-20-15t-20 15 20 15 20 15-20 15-20-15"/><line x1="186.75" x2="186.75" y1="100.48" y2="165.48"/><path d="m186.75 165.48q0 20-20 20"/><circle cx="186.75" cy="77.476" r="9" fill="#000" stroke="none"/><path d="m166.01 233.81v48q0 12 20 12t20-12v-48"/><path d="m266.01 263.81q0-30-20-30t-20 30 20 30 20-30v55q0 15-20 15t-20-10"/><path d="m328.01 263.81q0-30-20-30t-20 30 20 30 20-30"/></g></svg>
