<svg xmlns="http://www.w3.org/2000/svg" fill-rule="evenodd" stroke-width="27" aria-label="Logo" viewBox="0 0 347 391"><path fill="#ff4088" stroke="#c9177e" d="m195.81 24.13 114.41 66.54a44 44 0 0 1 21.88 38.04v136.43a48 48 0 0 1-24.45 41.82L194.1 370.9a49 49 0 0 1-48.48-.23L41.05 310.48a53 53 0 0 1-26.56-45.93V135.08a55 55 0 0 1 26.1-46.8l102.8-63.46a51 51 0 0 1 52.42-.69z"/><path fill="#fff" d="M55.853 301.21V93.99h34.016v75.48h56.435V93.99h34.119v207.22h-34.119V210.6H89.87v90.61z" style="fill:#fff;fill-opacity:1;stroke:none;stroke-width:23.918;stroke-dasharray:none;stroke-opacity:1"/><g fill="none" stroke="#000" stroke-linecap="round" stroke-linejoin="round" stroke-width="18"><path d="m244 315-22 30 22 30" transform="matrix(1.47985 0 0 1.0877 -242.232 -299.204)"/><path d="m258.861 375 20-60" transform="matrix(1.47985 0 0 1.0877 -227.285 -299.204)"/><path d="m300 315 22 30-22 30" transform="matrix(1.47985 0 0 1.0877 -218.189 -299.68)"/></g><path fill="none" stroke="#000" stroke-linecap="round" stroke-linejoin="round" stroke-width="18" d="M166.008 233.814v48q0 12 20 12t20-12v-48m60 30q0-30-20-30t-20 30 20 30 20-30v55q0 15-20 15t-20-10m102-60q0-30-20-30t-20 30 20 30 20-30"/><path fill="none" stroke="#000" stroke-linecap="round" stroke-linejoin="round" stroke-width="18" d="m160 40-40 120h80M160 40v180" transform="matrix(1.07403 0 0 .81205 -113.417 120.203)"/></svg>