<?xml version="1.0" encoding="UTF-8"?>
<svg fill-rule="evenodd" stroke-width="27" aria-label="Logo" version="1.1" viewBox="0 0 347 391" xmlns="http://www.w3.org/2000/svg"><path d="m195.81 24.13 114.41 66.54a44 44 0 0121.88 38.04v136.43a48 48 0 01-24.45 41.82l-113.55 63.94a49 49 0 01-48.48-.23l-104.57-60.19a53 53 0 01-26.56-45.93v-129.47a55 55 0 0126.1-46.8l102.8-63.46a51 51 0 0152.42-.69z" fill="#ff4088" stroke="#c9177e"/><path d="m55.853 301.21v-207.22h34.016v75.48h56.435v-75.48h34.118v207.22h-34.118v-90.61h-56.435v90.61z" fill="#fff"/><g fill="none" stroke="#000" stroke-linecap="round" stroke-linejoin="round" stroke-width="18"><g transform="matrix(1.4799 0 0 1.0877 -227.29 -299.2)"><polyline transform="translate(-10.1)" points="244 315 222 345 244 375"/><line x1="258.86" x2="278.86" y1="375" y2="315"/><polyline transform="translate(6.1469 -.43828)" points="300 315 322 345 300 375"/></g><path d="m166.01 233.81v48q0 12 20 12t20-12v-48"/><path d="m266.01 263.81q0-30-20-30t-20 30 20 30 20-30v55q0 15-20 15t-20-10"/><path d="m328.01 263.81q0-30-20-30t-20 30 20 30 20-30"/><g transform="matrix(1.074 0 0 .81205 -113.42 120.2)"><polyline points="160 40 120 160 200 160"/><line x1="160" x2="160" y1="40" y2="220"/></g></g></svg>
